<svg id="visual" viewBox="0 0 900 600" width="900" height="600" xmlns="http://www.w3.org/2000/svg" xmlns:xlink="http://www.w3.org/1999/xlink" version="1.1"><rect x="0" y="0" width="900" height="600" fill="#ffffff"></rect><defs><linearGradient id="grad1_0" x1="33.3%" y1="0%" x2="100%" y2="100%"><stop offset="20%" stop-color="#ffffff" stop-opacity="1"></stop><stop offset="80%" stop-color="#ffffff" stop-opacity="1"></stop></linearGradient></defs><defs><linearGradient id="grad2_0" x1="0%" y1="0%" x2="66.7%" y2="100%"><stop offset="20%" stop-color="#ffffff" stop-opacity="1"></stop><stop offset="80%" stop-color="#ffffff" stop-opacity="1"></stop></linearGradient></defs><g transform="translate(900, 0)"><path d="M0 351.5C-22.6 292.9 -45.2 234.2 -93.8 226.4C-142.3 218.5 -216.7 261.5 -248.6 248.6C-280.5 235.6 -269.9 166.7 -279.9 116C-290 65.2 -320.8 32.6 -351.5 0L0 0Z" fill="#4f46e5"></path></g><g transform="translate(0, 600)"><path d="M0 -351.5C39.5 -341.3 79.1 -331 132.4 -319.7C185.8 -308.3 252.9 -295.9 248.6 -248.6C244.2 -201.3 168.4 -119.2 173.7 -71.9C178.9 -24.7 265.2 -12.4 351.5 0L0 0Z" fill="#4f46e5"></path></g></svg>